<svg id="a75361c0-8a20-41e8-b2e3-b7c24be7d07c" data-name="Capa 1" xmlns="http://www.w3.org/2000/svg" viewBox="0 0 1019.31 1019.31"><defs><style>.e90c8dd8-f02b-482a-a571-54c00fefcb3d{opacity:0.25;}.acfd6f72-1631-436b-a1f6-6a47a6b81200{fill:#fff;}.e316f97f-892f-4c14-b193-aff72052179b{fill:#b3b3b3;}</style></defs><title>Mouse move</title><g class="e90c8dd8-f02b-482a-a571-54c00fefcb3d"><path class="acfd6f72-1631-436b-a1f6-6a47a6b81200" d="M106.8,543.38l139.84,242.2c54.85,95,185.27,122.38,280.27,67.53h0c95-54.84,136.49-181.49,81.65-276.49L468.72,334.43l-181,104.47Z" transform="translate(-2.35 -2.35)"/><path class="acfd6f72-1631-436b-a1f6-6a47a6b81200" d="M144.16,169.52h0l37.35,64.68h0a27.8,27.8,0,0,1,38,10.18l39.73,68.81a27.8,27.8,0,0,1-10.18,38h0l37.34,64.68,172-99.31-42.9-74.31C360.64,147.23,239.17,114.68,144.16,169.52Z" transform="translate(-2.35 -2.35)"/><path class="e316f97f-892f-4c14-b193-aff72052179b" d="M231.15,361.5h0a27.81,27.81,0,0,1-38-10.18l-39.72-68.8a27.81,27.81,0,0,1,10.18-38h0l-37.34-64.68h0C31.27,234.7-1.28,356.18,53.57,451.18l42.91,74.31,172-99.31Z" transform="translate(-2.35 -2.35)"/><rect class="acfd6f72-1631-436b-a1f6-6a47a6b81200" x="188.85" y="250.98" width="34.96" height="93.75" rx="6.75" transform="translate(-123.63 140.72) rotate(-30)"/></g><path class="acfd6f72-1631-436b-a1f6-6a47a6b81200" d="M555.28,334.43,415.44,576.62c-54.84,95-13.35,221.65,81.65,276.49h0c95,54.85,225.42,27.47,280.27-67.53L917.2,543.38l-181-104.48Z" transform="translate(-2.35 -2.35)"/><path class="acfd6f72-1631-436b-a1f6-6a47a6b81200" d="M897.73,179.85h0l-37.35,64.68h0a27.81,27.81,0,0,1,10.18,38l-39.72,68.8a27.81,27.81,0,0,1-38,10.18h0l-37.34,64.68,172,99.31,42.91-74.31C1025.28,356.18,992.73,234.7,897.73,179.85Z" transform="translate(-2.35 -2.35)"/><path class="e316f97f-892f-4c14-b193-aff72052179b" d="M775,351.17h0a27.8,27.8,0,0,1-10.18-38l39.73-68.81a27.8,27.8,0,0,1,38-10.18h0l37.35-64.68h0c-95-54.84-216.48-22.29-271.33,72.71l-42.9,74.31,172,99.31Z" transform="translate(-2.35 -2.35)"/><rect class="acfd6f72-1631-436b-a1f6-6a47a6b81200" x="770.8" y="280.37" width="93.75" height="34.96" rx="6.75" transform="matrix(0.5, -0.87, 0.87, 0.5, 148.54, 854.71)"/><polygon class="acfd6f72-1631-436b-a1f6-6a47a6b81200" points="0 509.65 29.31 552.74 29.31 466.57 0 509.65"/><polygon class="acfd6f72-1631-436b-a1f6-6a47a6b81200" points="1019.31 509.65 990 466.57 990 552.74 1019.31 509.65"/><polygon class="acfd6f72-1631-436b-a1f6-6a47a6b81200" points="509.65 1019.31 552.74 990 466.57 990 509.65 1019.31"/><polygon class="acfd6f72-1631-436b-a1f6-6a47a6b81200" points="509.65 0 466.57 29.31 552.74 29.31 509.65 0"/></svg>