<svg id="b9ba99d0-c72e-4eca-a902-f73896a518e4" data-name="Capa 1" xmlns="http://www.w3.org/2000/svg" viewBox="0 0 526 986"><defs><style>.ba9f4b0e-680a-4db5-af0a-490050dc4e86{fill:#fff;}.b77a6e5f-1596-4099-a442-713b24c08619{fill:#ccc;}</style></defs><title>Mouse</title><path class="ba9f4b0e-680a-4db5-af0a-490050dc4e86" d="M249,403V755c0,138.07,124.93,250,263,250h0c138.07,0,263-111.93,263-250V403H249Z" transform="translate(-249 -19)"/><path class="ba9f4b0e-680a-4db5-af0a-490050dc4e86" d="M525,19h0v94h0a35,35,0,0,1,35,35V248a35,35,0,0,1-35,35h0v94H775V269C775,130.93,663.07,19,525,19Z" transform="translate(-249 -19)"/><path class="b77a6e5f-1596-4099-a442-713b24c08619" d="M499,283h0a35,35,0,0,1-35-35V148a35,35,0,0,1,35-35h0V19h0C360.93,19,249,130.93,249,269V377H499Z" transform="translate(-249 -19)"/><rect class="ba9f4b0e-680a-4db5-af0a-490050dc4e86" x="241" y="120" width="44" height="118" rx="8.5"/></svg>